<mxfile host="app.diagrams.net" modified="2024-05-23T11:08:29.577Z" agent="Mozilla/5.0 (Windows NT 10.0; Win64; x64) AppleWebKit/537.36 (KHTML, like Gecko) Chrome/121.0.0.0 Safari/537.36" etag="tTjyuOlhL5fjnz5iG_it" version="24.4.6" type="device">
  <diagram name="Página-1" id="2I4b095FlnMZhATp7n7J">
    <mxGraphModel dx="1434" dy="750" grid="1" gridSize="10" guides="1" tooltips="1" connect="1" arrows="1" fold="1" page="1" pageScale="1" pageWidth="827" pageHeight="1169" math="0" shadow="0">
      <root>
        <mxCell id="0" />
        <mxCell id="1" parent="0" />
        <mxCell id="xAwkQ94SKrrT_scDbUS--1" style="edgeStyle=orthogonalEdgeStyle;rounded=0;orthogonalLoop=1;jettySize=auto;html=1;entryX=0.5;entryY=0;entryDx=0;entryDy=0;" edge="1" parent="1" source="xAwkQ94SKrrT_scDbUS--2" target="xAwkQ94SKrrT_scDbUS--5">
          <mxGeometry relative="1" as="geometry" />
        </mxCell>
        <mxCell id="xAwkQ94SKrrT_scDbUS--2" value="Cadastro Produto" style="ellipse;whiteSpace=wrap;html=1;" vertex="1" parent="1">
          <mxGeometry x="80" y="70" width="120" height="80" as="geometry" />
        </mxCell>
        <mxCell id="xAwkQ94SKrrT_scDbUS--3" style="edgeStyle=orthogonalEdgeStyle;rounded=0;orthogonalLoop=1;jettySize=auto;html=1;exitX=1;exitY=0.5;exitDx=0;exitDy=0;entryX=0.5;entryY=0;entryDx=0;entryDy=0;" edge="1" parent="1" source="xAwkQ94SKrrT_scDbUS--5" target="xAwkQ94SKrrT_scDbUS--9">
          <mxGeometry relative="1" as="geometry" />
        </mxCell>
        <mxCell id="xAwkQ94SKrrT_scDbUS--4" style="edgeStyle=orthogonalEdgeStyle;rounded=0;orthogonalLoop=1;jettySize=auto;html=1;entryX=0.5;entryY=0;entryDx=0;entryDy=0;" edge="1" parent="1" source="xAwkQ94SKrrT_scDbUS--5" target="xAwkQ94SKrrT_scDbUS--7">
          <mxGeometry relative="1" as="geometry" />
        </mxCell>
        <mxCell id="xAwkQ94SKrrT_scDbUS--5" value="Tem Cadastro?" style="rhombus;whiteSpace=wrap;html=1;" vertex="1" parent="1">
          <mxGeometry x="80" y="210" width="120" height="90" as="geometry" />
        </mxCell>
        <mxCell id="xAwkQ94SKrrT_scDbUS--6" style="edgeStyle=orthogonalEdgeStyle;rounded=0;orthogonalLoop=1;jettySize=auto;html=1;entryX=0.5;entryY=0;entryDx=0;entryDy=0;" edge="1" parent="1" source="xAwkQ94SKrrT_scDbUS--7" target="xAwkQ94SKrrT_scDbUS--11">
          <mxGeometry relative="1" as="geometry" />
        </mxCell>
        <mxCell id="xAwkQ94SKrrT_scDbUS--7" value="Listar" style="rounded=0;whiteSpace=wrap;html=1;" vertex="1" parent="1">
          <mxGeometry x="80" y="360" width="120" height="60" as="geometry" />
        </mxCell>
        <mxCell id="xAwkQ94SKrrT_scDbUS--8" style="edgeStyle=orthogonalEdgeStyle;rounded=0;orthogonalLoop=1;jettySize=auto;html=1;entryX=0.5;entryY=0;entryDx=0;entryDy=0;" edge="1" parent="1" source="xAwkQ94SKrrT_scDbUS--9" target="xAwkQ94SKrrT_scDbUS--14">
          <mxGeometry relative="1" as="geometry" />
        </mxCell>
        <mxCell id="xAwkQ94SKrrT_scDbUS--9" value="Criar cadastro (nome,telefone,&lt;div&gt;endereço)&lt;/div&gt;" style="rounded=0;whiteSpace=wrap;html=1;" vertex="1" parent="1">
          <mxGeometry x="260" y="300" width="120" height="60" as="geometry" />
        </mxCell>
        <mxCell id="xAwkQ94SKrrT_scDbUS--10" style="edgeStyle=orthogonalEdgeStyle;rounded=0;orthogonalLoop=1;jettySize=auto;html=1;entryX=0.5;entryY=0;entryDx=0;entryDy=0;" edge="1" parent="1" source="xAwkQ94SKrrT_scDbUS--11" target="xAwkQ94SKrrT_scDbUS--16">
          <mxGeometry relative="1" as="geometry" />
        </mxCell>
        <mxCell id="xAwkQ94SKrrT_scDbUS--11" value="Buscar Produto" style="rounded=0;whiteSpace=wrap;html=1;" vertex="1" parent="1">
          <mxGeometry x="80" y="470" width="120" height="60" as="geometry" />
        </mxCell>
        <mxCell id="xAwkQ94SKrrT_scDbUS--12" value="não" style="text;html=1;align=center;verticalAlign=middle;resizable=0;points=[];autosize=1;strokeColor=none;fillColor=none;" vertex="1" parent="1">
          <mxGeometry x="200" y="258" width="40" height="30" as="geometry" />
        </mxCell>
        <mxCell id="xAwkQ94SKrrT_scDbUS--13" value="sim" style="edgeStyle=orthogonalEdgeStyle;rounded=0;orthogonalLoop=1;jettySize=auto;html=1;entryX=1;entryY=0.5;entryDx=0;entryDy=0;" edge="1" parent="1" source="xAwkQ94SKrrT_scDbUS--14" target="xAwkQ94SKrrT_scDbUS--7">
          <mxGeometry relative="1" as="geometry" />
        </mxCell>
        <mxCell id="xAwkQ94SKrrT_scDbUS--14" value="Dados&lt;div&gt;válidos?&lt;/div&gt;" style="rhombus;whiteSpace=wrap;html=1;" vertex="1" parent="1">
          <mxGeometry x="280" y="390" width="80" height="80" as="geometry" />
        </mxCell>
        <mxCell id="xAwkQ94SKrrT_scDbUS--15" value="não" style="edgeStyle=orthogonalEdgeStyle;rounded=0;orthogonalLoop=1;jettySize=auto;html=1;entryX=1.008;entryY=0.383;entryDx=0;entryDy=0;entryPerimeter=0;" edge="1" parent="1" source="xAwkQ94SKrrT_scDbUS--14" target="xAwkQ94SKrrT_scDbUS--9">
          <mxGeometry x="0.0841" relative="1" as="geometry">
            <Array as="points">
              <mxPoint x="400" y="430" />
              <mxPoint x="400" y="323" />
            </Array>
            <mxPoint as="offset" />
          </mxGeometry>
        </mxCell>
        <mxCell id="xAwkQ94SKrrT_scDbUS--16" value="Apagar Produto" style="rounded=0;whiteSpace=wrap;html=1;" vertex="1" parent="1">
          <mxGeometry x="20" y="570" width="120" height="60" as="geometry" />
        </mxCell>
        <mxCell id="xAwkQ94SKrrT_scDbUS--17" style="edgeStyle=orthogonalEdgeStyle;rounded=0;orthogonalLoop=1;jettySize=auto;html=1;entryX=0;entryY=0.5;entryDx=0;entryDy=0;" edge="1" parent="1" source="xAwkQ94SKrrT_scDbUS--18" target="xAwkQ94SKrrT_scDbUS--22">
          <mxGeometry relative="1" as="geometry">
            <mxPoint x="360" y="600" as="targetPoint" />
          </mxGeometry>
        </mxCell>
        <mxCell id="xAwkQ94SKrrT_scDbUS--18" value="Atualizar Produto" style="rounded=0;whiteSpace=wrap;html=1;" vertex="1" parent="1">
          <mxGeometry x="170" y="570" width="120" height="60" as="geometry" />
        </mxCell>
        <mxCell id="xAwkQ94SKrrT_scDbUS--19" style="edgeStyle=orthogonalEdgeStyle;rounded=0;orthogonalLoop=1;jettySize=auto;html=1;exitX=0.75;exitY=1;exitDx=0;exitDy=0;entryX=0.433;entryY=0.017;entryDx=0;entryDy=0;entryPerimeter=0;" edge="1" parent="1" source="xAwkQ94SKrrT_scDbUS--11" target="xAwkQ94SKrrT_scDbUS--18">
          <mxGeometry relative="1" as="geometry" />
        </mxCell>
        <mxCell id="xAwkQ94SKrrT_scDbUS--20" value="sim" style="edgeStyle=orthogonalEdgeStyle;rounded=0;orthogonalLoop=1;jettySize=auto;html=1;entryX=1;entryY=0.5;entryDx=0;entryDy=0;" edge="1" parent="1" source="xAwkQ94SKrrT_scDbUS--22" target="xAwkQ94SKrrT_scDbUS--2">
          <mxGeometry relative="1" as="geometry">
            <Array as="points">
              <mxPoint x="490" y="600" />
              <mxPoint x="490" y="110" />
            </Array>
          </mxGeometry>
        </mxCell>
        <mxCell id="xAwkQ94SKrrT_scDbUS--21" value="não" style="edgeStyle=orthogonalEdgeStyle;rounded=0;orthogonalLoop=1;jettySize=auto;html=1;entryX=0.5;entryY=1;entryDx=0;entryDy=0;" edge="1" parent="1" source="xAwkQ94SKrrT_scDbUS--22" target="xAwkQ94SKrrT_scDbUS--18">
          <mxGeometry relative="1" as="geometry">
            <Array as="points">
              <mxPoint x="400" y="690" />
              <mxPoint x="230" y="690" />
            </Array>
          </mxGeometry>
        </mxCell>
        <mxCell id="xAwkQ94SKrrT_scDbUS--22" value="Dados Válidos?" style="rhombus;whiteSpace=wrap;html=1;" vertex="1" parent="1">
          <mxGeometry x="360" y="560" width="80" height="80" as="geometry" />
        </mxCell>
      </root>
    </mxGraphModel>
  </diagram>
</mxfile>
